# xmcd
#
# Track frame offsets: 
#        150
#        21609
#        37857
#        56093
#        73601
#        91562
#        112856
#        130658
#        147089
#        164497
#
# Disc length: 2446 seconds
#
# Revision: 0
# Processed by: cddbd v1.5.2PL0 Copyright (c) Steve Scherf et al.
# Submitted via: ExactAudioCopy v1.0b6
#
DISCID=7e098c0a
DTITLE=The Meltdown - The Meltdown
DYEAR=2017
DGENRE=R&B
TTITLE0=Darkness Into Light
TTITLE1=Crooked Country
TTITLE2=Secret Life
TTITLE3=Forever And Always
TTITLE4=Don't Hesitate
TTITLE5=How Funny Is Another Man's Pain
TTITLE6=Better Days
TTITLE7=Slow Fever
TTITLE8=The Other Side
TTITLE9=Colours Int The Sky
EXTD=
EXTT0=
EXTT1=
EXTT2=
EXTT3=
EXTT4=
EXTT5=
EXTT6=
EXTT7=
EXTT8=
EXTT9=
PLAYORDER=
